<?xml version="1.0" encoding="utf-8"?>
<!-- Generator: Adobe Illustrator 21.0.2, SVG Export Plug-In . SVG Version: 6.00 Build 0)  -->
<svg version="1.1" id="Layer_1" xmlns="http://www.w3.org/2000/svg" xmlns:xlink="http://www.w3.org/1999/xlink" x="0px" y="0px"
	 viewBox="0 0 250 75" style="enable-background:new 0 0 250 75;" xml:space="preserve">
<style type="text/css">
	.st0{fill:#FFFFFF;}
	.st1{fill:#FFD520;}
	.st2{fill:#E03A3E;}
</style>
<g>
	<g>
		<path d="M150.2,53.6c0,1.8,0.7,2.2,2.4,2.2h0.7v0.6h-8.4v-0.6h0.5c1.8,0,2.4-0.5,2.4-2.5V40.9c0-1.8-0.5-2.4-2.2-2.4h-0.7v-0.6
			c0.7,0,2.5-0.1,3.8-0.2c1.2-0.1,1.8-0.1,3.8-0.1c5.5,0,8,2.3,8,5.3c0,2.2-1.5,4.1-4,4.8c1.1,0.9,2,1.7,3.4,3.1l2.4,2.4
			c1.8,1.8,2.6,2.9,3.9,2.1l1.9,1.1c-6.5,0.2-5.6-0.2-9.2-3.2l-2-2c-1.3-1.3-2.4-2.2-3.1-2.6c-0.7,0-1.2,0.1-2,0.1
			c-0.7,0-1,0-1.5-0.1L150.2,53.6L150.2,53.6z M150.2,48c0.7,0.1,1.2,0.1,1.8,0.1c3.3,0,5.5-1.4,5.5-5c0-2.8-1.3-4.9-5.8-4.9
			c-0.6,0-1,0-1.5,0.1L150.2,48C150.2,48,150.2,48,150.2,48z"/>
		<path d="M111.3,56.5H98v-0.6h1c1.4,0,1.9-0.4,1.9-2V40.7c0-1.6-0.5-2.2-2.4-2.2H98v-0.6h8.8v0.6h-1.1c-1.9,0-2.5,0.2-2.5,2.1v13.7
			c0,0.8,0.3,1.1,1.2,1.1h4.4c1.8,0,2.3-0.7,4.2-3.3h0.5L111.3,56.5z"/>
		<path d="M123,56.5h-7.2v-0.6c1.8-0.1,2.2-0.6,2.2-2.6V40.6c0-1.6-0.6-2.1-2.2-2.1v-0.6h7.2v0.6c-1.9,0-2.5,0.4-2.5,2.4v12.6
			c0,1.8,0.5,2.4,2.5,2.4V56.5z"/>
		<path d="M129.5,41.1c0-1.7-0.2-2.6-2.3-2.6h-1v-0.6c0.8,0,2.9-0.1,3.8-0.2c1.6-0.1,3.9-0.1,4.5-0.1c2.6,0,4.9,0.4,6,1.2
			c1.2,0.9,1.8,1.9,1.8,3.3c0,1.7-1.4,3.3-3.4,3.6v0.1c2.8,0.8,4.4,2.6,4.4,5c0,2.4-1.6,5.7-6.4,5.7h-10.9v-0.6h0.7
			c2.5,0,2.9-0.6,2.9-2.5L129.5,41.1C129.5,41.1,129.5,41.1,129.5,41.1z M131.9,45.7h3.2c2.9,0,4.3-1.1,4.3-3.5c0-2.1-1.3-4-4.9-4
			c-0.7,0-1.9,0.1-2.6,0.1V45.7z M131.9,52.6c0,2.3,0.9,3.1,3.4,3.1c3.9,0,5.1-2.4,5.1-4.8c0-2.3-1.8-4.7-5.2-4.7H132L131.9,52.6
			C132,52.6,131.9,52.6,131.9,52.6z"/>
		<path d="M170.1,48.2l-1.7,4.7c-0.2,0.6-0.6,1.5-0.6,1.9c0,0.8,0.8,1.1,2.4,1.1h0.5v0.6l-6.2,0l-0.6-0.6c2,0,2.3-0.4,3.2-3
			l5.4-14.8l-0.3-0.7h2.6L181,54c0.6,1.6,1.2,1.9,2.7,1.9v0.6h-8.2v-0.6h0.8c1.7,0,2.3-0.2,2.3-1c0-0.5-0.2-0.9-0.3-1.2l-2-5.4
			L170.1,48.2L170.1,48.2z M173.2,40l-2.5,6.9h5.2L173.2,40z"/>
		<path d="M212.8,56.5h-7.3v-0.6c1.8-0.1,2.2-0.6,2.2-2.6V40.6c0-1.6-0.6-2.1-2.2-2.1v-0.6h7.3v0.6c-1.9,0-2.5,0.4-2.5,2.4v12.6
			c0,1.8,0.5,2.4,2.5,2.4V56.5z"/>
		<path d="M228.6,49.8H228c-0.2-2.1-0.8-2.4-2-2.4h-5v6.4c0,1.4,0.5,1.6,1.6,1.6h4.6c2.1,0,2.7-0.8,3.5-3.4h0.5l-0.5,4.4h-15.8v-0.6
			h0.8c2.4,0,2.8-0.7,2.8-2.5V40.9c0-1.7-0.4-2.4-2.4-2.4h-0.7v-0.6h14.3l0.2,4.1h-0.5c-0.4-2.5-1.1-3.1-2.2-3.1h-6.3v7.3h5.3
			c1.1,0,1.6-0.5,1.7-2.2h0.6L228.6,49.8L228.6,49.8z"/>
		<path d="M234.8,51.9c0.6,2.6,2.7,4.2,5,4.2c2,0,4.1-1.2,4.1-3.5c0-4.3-9.6-5.6-9.6-10.8c0-2.5,2.3-4.3,5.3-4.3
			c2.5,0,3,0.7,4.1,0.7c0.2,0,0.4-0.1,0.5-0.3h0.5l0.5,3.8h-0.5c-0.8-2.1-2.7-3.5-4.8-3.5c-2,0-3.3,1.1-3.3,2.8
			c0,4.2,9.6,5.4,9.6,10.9c0,2.9-2.6,5.1-6.1,5.1c-1.6,0-3.7-0.8-4.1-0.8c-0.3,0-0.5,0.1-0.6,0.3h-0.5l-0.6-4.5L234.8,51.9
			L234.8,51.9z"/>
		<path d="M190.1,53.7c0,1.8,0.7,2.2,2.4,2.2h0.7v0.6h-8.4v-0.6h0.5c1.8,0,2.4-0.5,2.4-2.5V40.9c0-1.8-0.5-2.4-2.2-2.4h-0.7v-0.6
			c0.7,0,2.5-0.1,3.8-0.2c1.2-0.1,1.8-0.1,3.8-0.1c5.5,0,8,2.3,8,5.3c0,2.2-1.5,4.1-4,4.8c1.1,0.9,2,1.7,3.4,3.1l2.4,2.4
			c2.1,1.9,3.2,3.2,5.3,2.2l0.6,0.9c-5,0.4-6.6-0.5-9.2-3.1l-2-2c-1.3-1.3-2.4-2.2-3.1-2.6c-0.7,0-1.2,0.1-2,0.1c-0.7,0-1,0-1.5-0.1
			L190.1,53.7L190.1,53.7z M190.1,48.1c0.7,0.1,1.2,0.1,1.8,0.1c3.3,0,5.5-1.4,5.5-5c0-2.8-1.3-4.9-5.8-4.9c-0.6,0-1,0-1.5,0.1V48.1
			L190.1,48.1z"/>
		<g>
			<path d="M111.4,18.1v0.3c-1.2,0-1.7,0.5-1.7,1.7V25c0,2.3-1.4,4.7-5.4,4.7c-3.5,0-5.2-2-5.2-4.6v-5.3c0-1.2-0.3-1.3-1.6-1.4v-0.3
				h4.7v0.3h-0.2c-1,0-1.4,0.3-1.4,1.3v5.1c0,2.5,1.4,3.9,4.1,3.9c2.1,0,4.1-0.9,4.1-3.9v-4.2c0-1.7-0.3-2.1-1.8-2.1v-0.3
				L111.4,18.1C111.4,18.1,111.4,18.1,111.4,18.1z"/>
			<path d="M128.1,29.5l-9.4-9.9v7.8c0,1.3,0.3,1.6,1.8,1.6v0.3h-4.2V29h0.1c1.1,0,1.5-0.4,1.5-1.2v-8.9c-0.4-0.3-0.9-0.4-1.5-0.5
				v-0.3h2.8l8.6,8.9v-7.2c0-1.1-0.3-1.3-1.8-1.3v-0.3h4.2v0.3c-1.4,0-1.7,0.2-1.7,0.9v10.1C128.5,29.5,128.1,29.5,128.1,29.5z"/>
			<path d="M139.8,29.4h-4.4V29c1.1,0,1.4-0.3,1.4-1.6v-7.7c0-1-0.3-1.3-1.4-1.3v-0.3h4.4v0.3c-1.1,0-1.5,0.3-1.5,1.5v7.7
				c0,1.1,0.3,1.4,1.5,1.4V29.4z"/>
			<path d="M150.5,29.7l-3.9-9.8c-0.5-1.2-0.7-1.4-1.8-1.4v-0.3h5v0.3c-1.7,0-2.1,0.4-1.7,1.3l3.3,8.1l2.9-7.5
				c0.2-0.5,0.3-0.9,0.3-1.1c0-0.5-0.5-0.8-1.7-0.8v-0.3h4.2v0.3c-0.9,0-1.4,0.4-1.9,1.6l-3.7,9.7L150.5,29.7L150.5,29.7z"/>
			<path d="M169.7,25.3h-0.3c-0.1-1.3-0.5-1.4-1.2-1.4h-3.1v3.9c0,0.8,0.3,1,1,1h2.8c1.3,0,1.7-0.5,2.1-2.1h0.3l-0.3,2.7h-9.6V29
				h0.5c1.4,0,1.7-0.4,1.7-1.5v-7.7c0-1-0.2-1.4-1.4-1.4h-0.4v-0.3h8.7l0.1,2.5h-0.3c-0.2-1.5-0.7-1.9-1.3-1.9h-3.8v4.5h3.3
				c0.7,0,1-0.3,1.1-1.4h0.3V25.3z"/>
			<path d="M179.8,27.7c0,1.1,0.4,1.4,1.4,1.4h0.4v0.3h-5.1V29h0.3c1.1,0,1.4-0.3,1.4-1.5v-7.7c0-1.1-0.3-1.4-1.4-1.4h-0.4v-0.3
				c0.4,0,1.5-0.1,2.3-0.1c0.7,0,1.1,0,2.3,0c3.4,0,4.9,1.4,4.9,3.2c0,1.4-0.9,2.5-2.4,2.9c0.7,0.5,1.2,1,2.1,1.9l1.4,1.4
				c1.1,1.1,2.2,1.7,3.6,1.8v0.3c-3.2,0.1-4-0.5-5.6-2.2l-1.2-1.2c-0.8-0.8-1.4-1.3-1.9-1.6c-0.5,0-0.7,0-1.2,0c-0.4,0-0.6,0-0.9,0
				L179.8,27.7L179.8,27.7z M179.8,24.2c0.4,0,0.7,0,1.1,0c2,0,3.3-0.9,3.3-3c0-1.7-0.8-3-3.6-3c-0.3,0-0.6,0-0.9,0V24.2z"/>
			<path d="M195.5,26.6c0.4,1.6,1.6,2.6,3.1,2.6c1.2,0,2.5-0.7,2.5-2.1c0-2.6-5.8-3.4-5.8-6.6c0-1.5,1.4-2.6,3.2-2.6
				c1.5,0,1.8,0.5,2.5,0.5c0.1,0,0.2,0,0.3-0.2h0.3l0.3,2.3h-0.3c-0.5-1.3-1.7-2.1-2.9-2.1c-1.2,0-2,0.7-2,1.7
				c0,2.6,5.8,3.3,5.8,6.6c0,1.8-1.6,3.1-3.7,3.1c-1,0-2.3-0.5-2.5-0.5c-0.2,0-0.3,0.1-0.4,0.2h-0.3l-0.4-2.8L195.5,26.6L195.5,26.6
				z"/>
			<path d="M212.6,29.4h-4.4V29c1.1,0,1.4-0.3,1.4-1.6v-7.7c0-1-0.3-1.3-1.4-1.3v-0.3h4.4v0.3c-1.2,0-1.5,0.3-1.5,1.5v7.7
				c0,1.1,0.3,1.4,1.5,1.4V29.4z"/>
			<path d="M224.4,27.7c0,1,0.3,1.3,1.4,1.3h0.7v0.3h-5.7V29h0.7c1.1,0,1.4-0.3,1.4-1.3v-9h-3.2c-0.7,0-1.1,0.4-1.3,2h-0.3l0.3-2.9
				h0.3c0,0.1,0.1,0.2,0.2,0.2c0.1,0,0.2,0,0.4,0h8.7c0.2,0,0.5,0,0.6-0.3h0.3l0.3,2.9h-0.3c-0.3-1.6-0.6-2-1.3-2h-3.2L224.4,27.7
				L224.4,27.7z"/>
			<path d="M243.2,19.7c0.6-1,0.2-1.3-0.9-1.3v-0.3h4.1v0.3c-1.2,0.1-1.8,0.6-2.3,1.4l-3,5.1v2.7c0,1,0.3,1.3,1.4,1.3h0.2v0.3h-5V29
				h0.3c1.1,0,1.4-0.4,1.4-1.3v-2.6l-3.2-5.1c-0.9-1.4-1.3-1.7-2.5-1.7v-0.3h4.8v0.3c-1.4,0-1.5,0.3-1,1.2l2.9,4.5L243.2,19.7z"/>
		</g>
	</g>
	<g>
		<g>
			<g>
				<path class="st0" d="M15.1,37.2c0,14.6,11.8,26.4,26.4,26.4s26.4-11.8,26.4-26.4S56,10.8,41.4,10.8S15.1,22.6,15.1,37.2z"/>
			</g>
			<path class="st1" d="M67.8,36.6c0,0.1-0.5,0.5-1,0.8c0,0,0,0,0,0c-0.7,0.4-1.6,0.7-2.8,1c-1.2,0.3-2.7,0.6-4.4,0.9
				C57.8,39.6,56,39.8,54,40l0,0c-2.6,0.2-4.2,0.3-6.2,0.4c-2.2,0.1-4.4,0.1-6.7,0.1c0,0.3,0,0.6,0,0.9c0,2.1,0,4,0,5.9
				c0,10.1,0.1,10.1,0.4,16.3c14.6,0,26.4-11.8,26.4-26.4C67.8,37.2,67.8,36.8,67.8,36.6z"/>
			<path d="M51.2,60.8L51.2,60.8L51.2,60.8z"/>
			<g>
				<path d="M41,41.4c0,2.1,0,4,0,5.9c4.2,4,4.2,4,6,5.8c0.5-3.3,0.7-7.3,0.7-11.8c0-0.3,0-0.6,0-0.9c-2.7,0.1-4.4,0.1-6.7,0.1
					C41,40.8,41,41.1,41,41.4z"/>
				<path d="M50.7,57.6c-0.9-1.5-1.8-2.5-3.7-4.5c-0.9,6.4-2.5,10.4-4.5,10.4c0.2,0,0.4,0,0.6,0c0.2,0,0.5,0,0.7,0
					C46.6,63.2,48.9,61.1,50.7,57.6z"/>
				<path d="M53.7,46.8c0,0-1.5,7.9-3,10.8c0.8,1.6,0.9,2.2,0.5,3.3c2.6-1.9,4.7-4.9,6.1-8.5C56.4,50.4,55.8,49.4,53.7,46.8z"/>
				<path d="M46.1,63.1c0.6-0.1,0.5-0.1,1.6-0.3l0.6-0.2c1.9-0.6,2.3-0.9,2.9-1.8c-1.7,1.3-3.6,2.1-5.7,2.4L46.1,63.1z"/>
				<path d="M57.8,56.7c3.8-4.3,6.1-10.4,6.1-17.3c0-0.3,0-0.6,0-0.9c-1.2,0.3-2.7,0.6-4.4,0.9c0,0.3,0,0.6,0,0.9
					c0,4.5-0.8,8.6-2.2,12.1C58.2,54.3,58.2,55.2,57.8,56.7z"/>
				<path d="M54,40c-2.6,0.2-4.2,0.3-6.2,0.4c3.6,3.8,4.4,4.6,5.9,6.4c0.2-1.9,0.3-3.8,0.3-5.9C54,40.6,54,40.3,54,40z"/>
			</g>
			<path d="M35.7,12.2c1.5-0.6,2.9-1.2,5.7-1.4l0,0C39.4,11,37.4,11.6,35.7,12.2"/>
			<g>
				<path class="st2" d="M59.1,39.4c-1.4-0.2-2.5-2.5-1.9-4.9c-1.9,1.3-4.1-1.4-3.8-3.9c0.2-1.3,1-2.5,2.6-2c-0.6-2.1-1.4-4.2-2.3-6
					c-1.4,0.2-2.9,0.3-4.4,0.4c1.4,2.1,0,4.1-1.9,3.8c-1.4-0.2-2.7-1.7-2.4-3.5c-1.2,0.8-3.5,0.5-3.8-2C41.1,26.6,41,33.4,41,40.5
					c7,0.1,15.2-0.7,18.5-1.2c0,0,0,0,0,0C59.4,39.4,59.2,39.4,59.1,39.4z"/>
			</g>
			<g>
				<path class="st2" d="M24.4,44.6c2-0.8,4.4,2.6,3.6,4.9c-0.4,1-1.4,1.3-2.5,0.7c0.6,2,1.3,3.8,2.2,5.4c1.4,0.2,2.9,0.4,4.6,0.5
					c-1.4-1.7-0.3-3.1,1.5-3c1.6,0.1,3.6,1.4,3.2,3.2c1.4-0.6,3.8-0.1,4.1,1.7c-0.1-3.9-0.1-9.8-0.1-16.6c0-0.3,0-0.6,0-0.9
					c-2.2,0-4.5-0.1-6.7-0.2c-4.8-0.2-8-0.5-12-1.2c0,0,0,0,0,0C24.4,39.9,24.9,43,24.4,44.6z"/>
			</g>
			<path class="st2" d="M53.9,20.4L53.9,20.4L53.9,20.4C53.9,20.4,53.9,20.4,53.9,20.4L53.9,20.4L53.9,20.4c0.3,0,0.5-0.1,0.8-0.1
				c1.5-0.3,4.9-1.1,4.9-2.1c0,0,1.3,1.3,2.3,3.2c0.1,0.2,0.2,0.4,0.3,0.7c0.1,0.3,0.2,0.7,0.2,0.9c0,0.6-0.4,0.6-0.8,0.4
				c0,0-0.1,0-0.1,0c-1.3-0.6-1.8-1.9-2.1-2.4c-0.7,0.2-1.8,0.7-2.8,0.9c-0.1,0-0.3,0.1-0.4,0.1c1.1,1.8,2.2,4,2.9,6.2
				c1.3-1.4,3.4,1.2,3.5,3.6c0.1,1.4-0.6,2.7-1.9,2.3c1.1,1.9,0.7,4.8-1.3,5.4C59.2,33,58.1,27.3,53.9,20.4L53.9,20.4L53.9,20.4"/>
			<path class="st2" d="M53.9,20.4L53.9,20.4L53.9,20.4L53.9,20.4L53.9,20.4c-3.4-5.1-6-7-9.4-8.3c-0.7-0.3-3-1.2-3.1-1.2l0,0l0,0
				c0.6,0.9,1.8,1.4,2.1,1.5c-0.1,0.3,0,1,1.1,1.8c0.2,0.1,0.3,0.2,0.5,0.3c1.7,0.9,2.1,0.2,2.2-0.1c0,0,0,0,0,0
				c0.5,0.4,1.5,1.2,2.7,2.5c0.6,0.8,1.3,1.5,1.7,2.1c-1.1,0.1-2.5,0.3-3.8,0.4c-0.1-1.7-1.3-2.5-2.1-2.8c-1.7-0.6-2.2,1.3-1.5,2.7
				c-1.3-0.7-2.9-0.1-3.1,2C46.3,21.2,49.9,20.9,53.9,20.4L53.9,20.4L53.9,20.4"/>
			<path class="st2" d="M54.2,15.6c0,0,0-0.1,0-0.2c0-0.1,0.1-0.1,0.1-0.1s0-0.1,0.1-0.1c0.3-0.1,1.1-0.2,3.3,1.3
				c-4.6-3.6-9.5-5.1-13.7-5.5c-0.6-0.1-1.7-0.1-1.7-0.1c1.3,0.1,2.2,0.5,2.4,0.5c0.2,0.1,0.3,0.1,0.4,0.2c0,0,0,0,0,0
				c0.3,0,0.6,0.1,0.9,0.2c0.4,0.1,1.1,0.4,1.7,0.7c0.6,0.3,1.5,0.9,1.5,1.3c-0.1,0.1-0.2,0.1-0.6,0c1.6,1.1,3.8,3.2,5.1,4.8
				c0.9-0.2,2.3-0.4,2.9-0.6C56.7,18,54.7,16.5,54.2,15.6z"/>
			<path class="st2" d="M27.4,57.1c-2.3-0.4-3.6-0.7-4.4-1.2c-0.1-0.1-0.2-0.1-0.2-0.1c0,0-1.3-1.3-2.4-2.7
				c-0.8-1.1-1.5-2.2-1.6-2.3c0,0,0.2,0,0.3,0c1.2,0.4,3,3.6,3.1,3.7c0.7,0.3,1.7,0.5,2.8,0.8c-1.1-1.6-2-3.5-2.7-5.5
				c-1.6,0.8-3.7-3.5-3.1-5.3c0.1-0.4,0.6-1.2,1.7-0.3c-0.8-1.9-0.6-4.8,1.4-4.8C22.4,45.6,23.3,51.2,27.4,57.1"/>
			<path class="st2" d="M41.1,58.4c-0.2,0.9-1.5,1.8-3.3,1.1c0.8,1.1,0.1,2.1-1.4,1.8c-1.2-0.2-2.5-1.1-2.6-2.1
				c-1.4-0.1-2.7-0.2-3.9-0.4c1.1,1.3,2.3,2.3,3.7,3.1c0.2-0.1,0.4,0,1.2,0.2c1,0.4,2,0.8,3,1.2l-0.2,0c-0.8-0.1-1-0.2-1.4-0.2
				c-1.9-0.4-5.3-1.5-8.7-5.9l0,0l0,0l0,0c4.1,0.6,8.1,0.9,13.8,0.9C41.2,58.1,41.2,58.3,41.1,58.4"/>
			<path class="st1" d="M41.4,10.8c-14.1,0-26,11.5-26.3,25.9l0,0c0,0,0.1,0.3,0.7,0.7l0,0l0,0c0.6,0.3,1.4,0.7,2.5,1
				c1.3,0.3,2.7,0.6,4.1,0.9h0c4,0.7,7.2,1,12,1.2c2.2,0.1,4.5,0.2,6.7,0.2c0-1.3,0-9,0-16.4c0-1,0-2,0-3
				C41.2,16.4,41.3,11.5,41.4,10.8L41.4,10.8z"/>
			<path d="M54,60.4c-1.5,0.8-1.8,0.9-3.8,1.7c-0.6,0.2-1.1,0.4-1.6,0.5c3.6-1,8.4-4.9,9.3-5.9c-0.4,1-0.8,1.6-1.8,2.4
				C55.8,59.4,54.5,60.1,54,60.4z"/>
			<path d="M18.2,38.4c-1.1-0.3-1.9-0.6-2.5-1c0.3-9.5,5.6-18,13.3-22.6c-1.8,1.6-2.6,2.6-3.6,4.8C21.2,24.5,18.4,31.2,18.2,38.4"/>
			<path d="M29.1,14.7c1.9-1.4,3-2.4,6.1-3.1c2.2-0.5,4-0.7,6.2-0.7l0,0C36.9,11,32.8,12.5,29.1,14.7"/>
			<path d="M27.7,40c-1.9-0.2-3.8-0.4-5.4-0.7c0.1-4.8,1.1-9.4,2.8-13.4c0.7,2.7,1.2,4.1,3.1,7.3C27.9,35.3,27.7,37.6,27.7,40"/>
			<path d="M41.1,21.2c0,2.9,0,5.9-0.1,8.2c0,2.3,0,3.9,0,4.3c-2.6-2.7-4-4.2-5.9-6.6c1.3-8.2,3.6-14.7,6.2-16.2l0,0l0,0
				C41.3,11.6,41.2,16.3,41.1,21.2z"/>
			<g>
				<path d="M31.9,20.9c-1.7,3.5-2.9,7.7-3.6,12.2c1.6,2.4,2.6,3.8,5.8,7.3c0-4.7,0.4-9.3,1.1-13.4C33.2,24.3,32.6,23.1,31.9,20.9z"
					/>
			</g>
			<path d="M66.8,37.5c0,0.3,0,0.6,0,0.9c0,9.3-4.5,17.1-11.7,21.4l-0.2,0.1c3.3-2.1,7.6-5.5,10.3-11.3c2.9-5.7,2.6-11.9,2.6-11.9
				C67.6,36.9,67.2,37.2,66.8,37.5z"/>
			<g>
				<path d="M35.7,12.2c-3.8,1.5-7.3,4.1-10.1,7.3c-0.8,2.4-0.8,3.7-0.4,6.3c1.7-4,4.1-7.5,6.9-10.1C33,14.3,33.5,13.3,35.7,12.2z"
					/>
			</g>
			<path d="M31.9,20.9c-0.5-2.2-0.5-3.2,0.2-5.1c2.7-2.5,5.9-4.4,9.3-5C37.7,11.8,34.3,15.7,31.9,20.9"/>
			<path d="M9.7,17.7l0.1,0.1c-0.3,0.5-0.1,0.8,0.4,1.1l2.1,1.1c1,0.5,1.7,1.6,0.9,3.4c-0.8,1.5-2,1.9-3.1,1.3l-2.3-1.2
				c-0.5-0.2-0.7-0.1-0.9,0.4l-0.1-0.1l1-2l0.1,0.1l0,0.1c-0.2,0.4-0.2,0.7,0.3,0.9l2.2,1.1c1.1,0.5,2,0.2,2.6-1
				c0.4-0.9,0.5-2-0.8-2.7l-1.9-0.9c-0.8-0.4-1-0.3-1.3,0.3l-0.1-0.1L9.7,17.7z"/>
			<path d="M18.8,15l-6.6,0.4l2.9,2.5c0.5,0.4,0.7,0.4,1.2-0.2l0.1,0.1l-1.3,1.6l-0.1-0.1l0,0c0.4-0.4,0.3-0.7,0-0.9l-3.3-2.8
				c-0.2,0.1-0.4,0.2-0.7,0.4l-0.1-0.1l0.9-1.1l6-0.4l-2.7-2.3c-0.4-0.3-0.6-0.3-1.1,0.2l-0.1-0.1l1.3-1.6l0.1,0.1
				c-0.4,0.5-0.4,0.7-0.2,0.9l3.8,3.2L18.8,15z"/>
			<path d="M22.1,12.2l-1.7,1.4l-0.1-0.1c0.4-0.4,0.4-0.6,0-1l-2.4-2.9c-0.3-0.4-0.5-0.4-0.9-0.1l-0.1-0.1l1.7-1.4L18.7,8
				c-0.4,0.4-0.5,0.6-0.1,1l2.4,2.9c0.3,0.4,0.6,0.4,1,0.1L22.1,12.2z"/>
			<path d="M25.3,10.1L21.3,7c-0.5-0.4-0.6-0.4-1.1-0.2l-0.1-0.1l2.1-1.2l0.1,0.1c-0.7,0.4-0.8,0.7-0.4,1l3.4,2.6l-0.6-3.9
				c0-0.3-0.1-0.4-0.1-0.6c-0.1-0.2-0.4-0.2-0.9,0.1l-0.1-0.1l1.8-1l0.1,0.1c-0.4,0.2-0.5,0.5-0.4,1.1l0.8,5L25.3,10.1z"/>
			<path d="M31.9,4.9l-0.2,0c-0.3-0.6-0.5-0.6-0.8-0.5L29.5,5l0.6,1.8c0.1,0.4,0.3,0.4,0.6,0.3L32,6.6c0.6-0.2,0.7-0.5,0.6-1.3
				l0.1,0l0.3,1.3l-4.5,1.5l0-0.2l0.2-0.1c0.7-0.2,0.7-0.5,0.6-1l-1.2-3.5C28,2.9,27.8,2.8,27.2,3L27.1,3l0-0.2l4-1.4l0.5,1.1
				l-0.1,0C31,2,30.7,1.9,30.4,2l-1.8,0.6l0.7,2.1l1.5-0.5c0.3-0.1,0.4-0.3,0.3-0.8l0.2,0L31.9,4.9z"/>
			<path d="M35.2,0.6c0.2,0,0.3,0,0.4-0.1C37,0.4,37.5,1,37.6,1.8c0.1,1.1-0.5,1.5-1.4,1.7c-0.2,0-0.3,0-0.5,0L35.2,0.6z M35.6,3.7
				c0.1,0,0.3,0,0.4,0c0.2,0,0.4,0,0.6-0.1c0.2,0.1,0.6,0.3,1,0.7l0.7,0.5c0.9,0.7,1.3,1,2.8,0.7l0-0.2c-0.7,0-1.3-0.2-1.8-0.7
				L38.5,4c-0.5-0.4-0.8-0.6-1.1-0.8c0.7-0.3,1.1-0.9,1-1.6c-0.1-0.9-0.9-1.5-2.6-1.3c-0.6,0.1-0.7,0.1-1.1,0.2s-0.9,0.2-1.1,0.2
				l0,0.2l0.2,0c0.5-0.1,0.7,0.1,0.7,0.6l0.4,3.7C35.1,5.8,35,6,34.4,6l-0.1,0l0,0.2l2.5-0.3l0-0.2l-0.2,0c-0.5,0.1-0.7,0-0.8-0.6
				L35.6,3.7z"/>
			<path d="M42.4,4.2c0.1,0.8,0.7,1.3,1.4,1.4c0.6,0,1.3-0.2,1.3-1c0.1-1.3-2.7-1.9-2.6-3.4c0.1-0.7,0.8-1.2,1.7-1.2
				c0.7,0.1,0.9,0.3,1.2,0.3c0.1,0,0.1,0,0.2-0.1l0.1,0l0.1,1.1l-0.1,0c-0.2-0.7-0.7-1.1-1.3-1.2c-0.6,0-1,0.3-1.1,0.8
				c-0.1,1.3,2.7,1.8,2.6,3.4c-0.1,0.9-0.9,1.4-1.9,1.4c-0.5,0-1.1-0.3-1.2-0.3c-0.1,0-0.1,0-0.2,0.1l-0.1,0l-0.1-1.4L42.4,4.2z"/>
			<path d="M49.3,6.5l-2.1-0.5l0-0.2c0.5,0.1,0.7,0,0.8-0.6l0.8-3.7c0.1-0.5,0-0.6-0.5-0.8l0-0.2l2.1,0.5l0,0.2
				c-0.5-0.1-0.8,0-0.9,0.5l-0.8,3.7c-0.1,0.5,0,0.7,0.6,0.8L49.3,6.5z"/>
			<path d="M53.7,7.2c-0.2,0.4-0.1,0.7,0.4,0.9l0.3,0.1l-0.1,0.2l-2.6-1l0.1-0.1l0.3,0.1c0.5,0.2,0.7,0.1,0.9-0.3l1.6-4.1l-1.4-0.6
				c-0.3-0.1-0.6,0-1,0.7l-0.1-0.1l0.7-1.3l0.2,0.1c0,0,0,0.1,0,0.1c0,0,0.1,0.1,0.1,0.1l4,1.6c0.1,0,0.2,0.1,0.3,0l0.2,0.1
				l-0.4,1.4L57,4.8c0.2-0.8,0.1-1-0.2-1.2l-1.4-0.6L53.7,7.2z"/>
			<path d="M62.8,7.7c0.5-0.2,0.4-0.5,0-0.8l0.1-0.1l1.7,1.1l-0.1,0.1c-0.5-0.3-0.9-0.2-1.3,0l-2.6,1.3l-0.7,1.1
				c-0.3,0.4-0.2,0.6,0.2,0.9l0.1,0.1L60,11.5l-2-1.4L58,10l0.1,0.1c0.5,0.3,0.7,0.2,0.9-0.1l0.7-1L59.9,6c0-0.8-0.1-1-0.6-1.4
				l0.1-0.1l2,1.3L61.3,6c-0.6-0.4-0.7-0.3-0.7,0.2l0,2.6L62.8,7.7z"/>
			<path d="M70.1,18.3c-1,0.8-2.4,1-3.3-0.2c-0.9-1.1-0.6-2.7,0.7-3.8c0.9-0.6,2.4-1,3.3,0.2C71.7,15.8,71.4,17.3,70.1,18.3z
				 M70.8,18.8c1.3-1,1.3-2.8,0.3-4.1c-1.2-1.5-3-1.8-4.4-0.8c-1.3,1-1.3,2.8-0.3,4.2C67.5,19.5,69.4,19.9,70.8,18.8z"/>
			<path d="M72.7,24.4l-0.1-0.1c0.5-0.2,0.5-0.5,0.3-0.9l-0.7-1.5l-1.8,0.8c-0.4,0.2-0.6,0.4-0.3,1l-0.1,0.1l-0.9-1.9l0.1-0.1
				c0.3,0.5,0.4,0.5,1.1,0.2l3.1-1.5c0.5-0.2,0.7-0.4,0.5-1l0.1-0.1l1.7,3.6l-0.9,0.5l-0.1-0.1c0.5-0.2,0.6-0.5,0.3-1l-0.7-1.5
				l-1.9,0.9l0.8,1.6c0.1,0.3,0.4,0.4,0.7,0.2l0.1,0.1L72.7,24.4z"/>
			<path d="M10.6,59.1l3.2-5.9l0,0l-4.3,2.7c-0.5,0.3-0.3,0.7,0,1.2l-0.2,0.1l-1.4-1.9L8,55.2c0.5,0.7,0.7,0.6,1.6,0.1l3.7-2.4
				c0.6-0.4,0.8-0.5,0.4-1.1l0.2-0.1l1,1.4l-3,5.6l6.2-1.2l1,1.3l-0.2,0.1c-0.4-0.4-0.5-0.6-0.8-0.3l-3.9,3.3
				c-0.8,0.7-0.8,0.7-0.3,1.4l-0.2,0.1L12,61.1l0.2-0.1c0.3,0.4,0.7,0.8,1.2,0.4l3.9-3.3l0,0l-6.5,1.3L10.6,59.1z"/>
			<path d="M21.8,65.2l-1.6-1.2l2.3-1.6L21.8,65.2z M21.6,65.8L21,67.9c0,0.1-0.1,0.3-0.2,0.4c-0.2,0.3-0.4,0.2-0.9-0.2l-0.2-0.2
				l-0.1,0.2l2.5,1.8l0.1-0.2c-0.5-0.3-0.6-0.6-0.4-1.2l1.8-6.5l-0.8-0.6l-0.1,0.3l-5,3.3c-0.9,0.6-1.1,0.6-1.6,0.2L16,65.5l2.1,1.5
				l0.1-0.2l-0.1-0.1c-0.5-0.4-0.7-0.6-0.5-0.9c0.1-0.1,0.4-0.3,0.6-0.4l1.6-1L21.6,65.8z"/>
			<path d="M28.9,65.6c0.2,0,0.3,0.1,0.5,0.2c1.6,0.6,1.8,1.5,1.5,2.5c-0.5,1.3-1.4,1.5-2.6,1.1c-0.2-0.1-0.4-0.1-0.7-0.3L28.9,65.6
				z M27.6,69.3c0.2,0.1,0.3,0.1,0.5,0.2c0.3,0.1,0.5,0.1,0.7,0.2c0.2,0.3,0.5,0.7,0.8,1.3l0.5,1c0.6,1.3,1,1.9,2.8,2.4l0.1-0.2
				c-0.8-0.3-1.3-1-1.7-1.8l-0.5-1.2c-0.3-0.7-0.5-1.1-0.8-1.5c1,0,1.8-0.4,2-1.2c0.4-1.1-0.2-2.2-2.2-2.9c-0.7-0.2-0.9-0.3-1.4-0.4
				s-1.1-0.3-1.4-0.4L27,65l0.2,0.1c0.6,0.2,0.7,0.5,0.5,1.1l-1.6,4.5c-0.3,0.7-0.5,0.8-1.2,0.6l-0.2-0.1l-0.1,0.2l3,1.1l0.1-0.2
				l-0.2-0.1c-0.6-0.2-0.8-0.5-0.6-1.1L27.6,69.3z"/>
			<path d="M40.5,69.1c0.4-0.6,0.2-0.8-0.5-0.9l0-0.2l2.6,0.2l0,0.2c-0.8,0-1.1,0.3-1.5,0.8l-2.1,3l-0.1,1.7c0,0.6,0.1,0.9,0.8,0.9
				l0.1,0l0,0.2l-3.1-0.3l0-0.2l0.2,0c0.7,0.1,0.9-0.2,1-0.7l0.1-1.6l-1.7-3.3c-0.5-0.9-0.7-1.1-1.5-1.2l0-0.2l3,0.3l0,0.2
				c-0.9-0.1-1,0.1-0.7,0.7l1.6,2.9L40.5,69.1z"/>
			<path d="M49.9,74.2l-5,0.8l0-0.2l0.4-0.1c0.5-0.1,0.7-0.3,0.6-0.9l-0.8-5c-0.1-0.6-0.3-0.8-1-0.7l-0.2,0l0-0.2l3.3-0.6l0,0.2
				l-0.4,0.1c-0.7,0.1-0.9,0.2-0.8,0.9l0.9,5.2c0,0.3,0.2,0.4,0.5,0.3l1.6-0.3c0.7-0.1,0.8-0.4,1.4-1.5l0.2,0L49.9,74.2z"/>
			<path d="M55.3,68.5l-1.8,0.8l-0.1-2.8L55.3,68.5z M55.7,68.9l1.5,1.6c0.1,0.1,0.2,0.2,0.3,0.4c0.1,0.3-0.1,0.4-0.7,0.7l-0.3,0.1
				l0.1,0.2l2.9-1.2l-0.1-0.2c-0.5,0.2-0.8,0.2-1.2-0.3l-4.6-4.9l-0.9,0.4l0.2,0.2l0.3,6c0,1.1,0,1.2-0.7,1.5l0.1,0.2l2.4-1
				l-0.1-0.2l-0.2,0.1c-0.6,0.2-0.9,0.2-1,0c-0.1-0.1-0.1-0.5-0.1-0.7l-0.1-1.9L55.7,68.9z"/>
			<path d="M68,64.5l-8.4-1l3.1,3.8c0.5,0.6,0.8,0.6,1.5,0l0.1,0.2l-2,1.7l-0.1-0.2l0,0c0.5-0.4,0.6-0.8,0.2-1.2l-3.6-4.3
				c-0.3,0-0.6,0.1-0.9,0.4l-0.1-0.2l1.4-1.1l7.7,0.9L64,59.9c-0.4-0.5-0.7-0.5-1.4,0.1l-0.1-0.2l2-1.7l0.1,0.2
				c-0.7,0.5-0.7,0.8-0.4,1.1l4,4.9L68,64.5z"/>
			<path d="M66.3,55.7c0.1-0.1,0.2-0.4,0.5-0.8c0.9-1.3,1.6-1.8,2.4-1.9c0.9-0.2,1.8,0.1,2.5,0.6c1,0.6,1.4,1.5,1.5,2.1
				c0.2,1,0,1.6-0.8,2.9c-0.5,0.8-0.6,0.7-1,0.4L66.3,55.7z M70.7,59.7c0.6,0.4,0.5,0.7,0.2,1.2l-0.1,0.2l0.2,0.1l2-3
				c1.6-2.4,0.6-4.6-0.9-5.6c-1.6-1-3.6-0.7-5.2,1.8c-0.3,0.5-0.7,1.1-1,1.6c-0.3,0.5-0.6,1-0.8,1.4l0.2,0.1l0.1-0.2
				c0.4-0.6,0.6-0.6,1.2-0.2L70.7,59.7z"/>
			<path d="M5.1,35v4.9c0,0.2,0,0.3,0.3,0.3h0.5v0.1H3.7v-0.1h0.5c0.3,0,0.3-0.1,0.3-0.3v-4.2c-0.3,0.2-0.7,0.5-1.1,0.7l-0.1-0.1
				c0.5-0.3,1.2-1,1.4-1.2L5.1,35L5.1,35z"/>
			<path d="M9.9,39.1c0,0.7-0.5,1.2-1.1,1.2c-0.6,0-1.1-0.5-1.1-1.2c0-0.5,0.3-1,0.9-1.3C9.5,38.2,9.9,38.6,9.9,39.1z M10.3,36.2
				c0-0.7-0.7-1.2-1.5-1.2c-0.8,0-1.5,0.6-1.5,1.4c0,0.6,0.4,1,1.1,1.3c-0.8,0.3-1.2,0.8-1.2,1.4c0,0.8,0.7,1.4,1.6,1.4
				c0.9,0,1.7-0.7,1.7-1.5c0-0.6-0.4-1.1-1.3-1.5C9.9,37.1,10.3,36.7,10.3,36.2z M9.8,36.2c0,0.5-0.2,0.9-0.7,1.2
				c-1.1-0.5-1.3-0.8-1.3-1.3c0-0.5,0.4-0.9,1-0.9C9.3,35.1,9.8,35.6,9.8,36.2z"/>
			<path d="M72.5,35.6h2c0.1,0,0.2,0,0.2-0.1h0.2l-0.1,0.6h-2.1l-0.1,1.5c0.3-0.1,0.6-0.2,0.9-0.2c0.9,0,1.7,0.8,1.7,1.7
				c0,1-0.8,1.8-2,1.8c-0.7,0-1.2-0.2-1.2-0.5c0-0.1,0.1-0.3,0.3-0.3c0.5,0,0.6,0.6,1.1,0.6c0.6,0,1.2-0.6,1.2-1.4
				c0-0.8-0.5-1.3-1.3-1.3c-0.3,0-0.6,0.1-0.9,0.3l-0.1-0.1L72.5,35.6z"/>
			<path d="M78.9,39.3c0,1-0.4,1.5-1,1.5c-0.5,0-1.1-0.5-1.1-1.9c0-0.3,0-0.4,0-0.5c0.5-0.4,0.9-0.5,1.1-0.5
				C78.5,37.9,78.9,38.4,78.9,39.3z M79,35.5c-1.8,0.5-2.8,1.7-2.8,3.3c0,1.3,0.7,2.2,1.8,2.2c0.9,0,1.6-0.8,1.6-1.7
				c0-0.9-0.7-1.5-1.5-1.5c-0.4,0-0.7,0.1-1.2,0.5C77.1,36.9,77.8,36.1,79,35.5L79,35.5z"/>
		</g>
		<path d="M77.3,51.1c0,1-0.8,1.8-1.8,1.8c-1,0-1.8-0.8-1.8-1.8c0-1,0.8-1.8,1.8-1.8C76.4,49.3,77.3,50.1,77.3,51.1z M73.8,51.2
			c0,0.9,0.8,1.6,1.7,1.6c0.9,0,1.6-0.8,1.6-1.7c0-0.9-0.8-1.6-1.7-1.6C74.5,49.5,73.8,50.3,73.8,51.2z M75.4,50
			c0.5,0,0.8,0.2,0.8,0.6c0,0.3-0.2,0.5-0.6,0.6l0.5,0.8c0.1,0.2,0.2,0.2,0.3,0.2v0.1l-0.5,0l-0.8-1h-0.2l0,0.7
			c0,0.1,0.1,0.2,0.3,0.2v0.1l-0.9,0v-0.1c0.2,0,0.3-0.1,0.3-0.2l0-1.6c0-0.1,0-0.2-0.2-0.2v-0.1L75.4,50z M75.2,51.1
			c0.3,0,0.6-0.1,0.6-0.5c0-0.3-0.2-0.5-0.5-0.5c-0.1,0-0.1,0-0.2,0L75.2,51.1L75.2,51.1z"/>
	</g>
</g>
</svg>
